<svg width="16" height="21" viewBox="0 0 16 21" fill="none" xmlns="http://www.w3.org/2000/svg">
<path d="M7.99977 10.7997C9.54616 10.7997 10.7998 9.5461 10.7998 7.99971C10.7998 6.45331 9.54616 5.19971 7.99977 5.19971C6.45337 5.19971 5.19977 6.45331 5.19977 7.99971C5.19977 9.5461 6.45337 10.7997 7.99977 10.7997Z" stroke="#888888" stroke-width="2" stroke-linecap="round" stroke-linejoin="round"/>
<path d="M15 8C15 14.3 8 19.2 8 19.2C8 19.2 1 14.3 1 8C1 6.14348 1.7375 4.36301 3.05025 3.05025C4.36301 1.7375 6.14348 1 8 1C9.85652 1 11.637 1.7375 12.9497 3.05025C14.2625 4.36301 15 6.14348 15 8Z" stroke="#888888" stroke-width="2" stroke-linecap="round" stroke-linejoin="round"/>
</svg>
