<svg width="36" height="36" viewBox="0 0 36 36" fill="none" xmlns="http://www.w3.org/2000/svg">
<path d="M18 0C8.1 0 0 8.09881 0 17.9974C0 27.8959 8.1 35.9947 18 35.9947C27.9 35.9947 36 27.8959 36 17.9974C36 8.09881 27.9 0 18 0ZM24.6 25.3463C21.45 25.4962 14.4 25.4962 11.25 25.3463C7.95 25.0463 7.5 23.3966 7.5 17.9974C7.5 12.5981 7.95 10.9484 11.4 10.6484C14.55 10.4985 21.6 10.4985 24.75 10.6484C28.05 10.9484 28.5 12.5981 28.5 17.9974C28.5 23.3966 28.05 25.0463 24.6 25.3463ZM15 14.5479L22.35 17.9974L15 21.4468V14.5479Z" fill="white"/>
</svg>
