<svg width="36" height="37" viewBox="0 0 36 37" fill="none" xmlns="http://www.w3.org/2000/svg">
<path d="M18 0.0527344C8.1 0.0527344 0 8.14926 0 18.045C0 27.9408 8.1 36.0373 18 36.0373C27.9 36.0373 36 27.9408 36 18.045C36 8.14926 27.9 0.0527344 18 0.0527344ZM24.6 25.3919C21.45 25.5418 14.4 25.5418 11.25 25.3919C7.95 25.092 7.5 23.4427 7.5 18.045C7.5 12.6473 7.95 10.998 11.4 10.6982C14.55 10.5482 21.6 10.5482 24.75 10.6982C28.05 10.998 28.5 12.6473 28.5 18.045C28.5 23.4427 28.05 25.092 24.6 25.3919ZM15 14.5965L22.35 18.045L15 21.4935V14.5965Z" fill="white"/>
</svg>
