<svg width="36" height="37" viewBox="0 0 36 37" fill="none" xmlns="http://www.w3.org/2000/svg">
<path d="M22.2 9.49868C21.15 9.49868 20.7 9.49868 18 9.49868C15.3 9.49868 14.85 9.49868 13.8 9.49868C10.95 9.64862 9.6 10.998 9.45 13.8468C9.45 14.8964 9.45 15.3462 9.45 18.045C9.45 20.7439 9.45 21.1937 9.45 22.2432C9.6 25.092 10.95 26.4414 13.8 26.5913C14.85 26.5913 15.3 26.5913 18 26.5913C20.85 26.5913 21.15 26.5913 22.2 26.5913C25.05 26.4414 26.4 25.092 26.55 22.2432C26.55 21.1937 26.55 20.7439 26.55 18.045C26.55 15.3462 26.55 14.8964 26.55 13.8468C26.4 10.998 25.05 9.64862 22.2 9.49868ZM18 23.4427C15 23.4427 12.6 21.0437 12.6 18.045C12.6 15.0463 15 12.6473 18 12.6473C21 12.6473 23.4 15.0463 23.4 18.045C23.4 21.0437 21 23.4427 18 23.4427ZM23.55 13.6969C22.8 13.6969 22.35 13.0971 22.35 12.4974C22.35 11.8977 22.95 11.2979 23.55 11.2979C24.15 11.2979 24.75 11.8977 24.75 12.4974C24.9 13.0971 24.3 13.6969 23.55 13.6969ZM21.45 18.045C21.45 19.9942 19.95 21.4935 18 21.4935C16.05 21.4935 14.55 19.9942 14.55 18.045C14.55 16.0959 16.05 14.5965 18 14.5965C19.95 14.5965 21.45 16.0959 21.45 18.045ZM18 0.0527344C8.1 0.0527344 0 8.14926 0 18.045C0 27.9408 8.1 36.0373 18 36.0373C27.9 36.0373 36 27.9408 36 18.045C36 8.14926 27.9 0.0527344 18 0.0527344ZM28.5 22.3931C28.35 26.1415 26.25 28.3906 22.35 28.5405C21.3 28.5405 20.85 28.5405 18 28.5405C15.15 28.5405 14.85 28.5405 13.65 28.5405C9.9 28.3906 7.65 26.2915 7.5 22.3931C7.5 21.3436 7.5 20.8938 7.5 18.045C7.5 15.1962 7.5 14.8964 7.5 13.6969C7.65 9.94849 9.75 7.69945 13.65 7.54952C14.7 7.54952 15.15 7.54952 18 7.54952C20.85 7.54952 21.15 7.54952 22.35 7.54952C26.1 7.69945 28.35 9.79855 28.5 13.6969C28.5 14.7464 28.5 15.1962 28.5 18.045C28.5 20.8938 28.5 21.1937 28.5 22.3931Z" fill="white"/>
</svg>
