<svg width="36" height="37" viewBox="0 0 36 37" fill="none" xmlns="http://www.w3.org/2000/svg">
<path d="M18 0.0527344C8.1 0.0527344 0 8.14926 0 18.045C0 27.9408 8.1 36.0373 18 36.0373C27.9 36.0373 36 27.9408 36 18.045C36 8.14926 27.9 0.0527344 18 0.0527344ZM15 24.0424H12V15.0463H15V24.0424ZM13.5 13.6969C12.6 13.6969 11.85 12.9472 11.85 12.0476C11.85 11.148 12.6 10.3983 13.5 10.3983C14.4 10.3983 15.15 11.148 15.15 12.0476C15.15 12.9472 14.4 13.6969 13.5 13.6969ZM25.5 24.0424H22.5V19.6943C22.5 16.8455 19.5 17.1454 19.5 19.6943V24.0424H16.5V15.0463H19.5V16.6956C20.85 14.2966 25.5 14.1467 25.5 18.9446V24.0424Z" fill="white"/>
</svg>
