<svg width="36" height="36" viewBox="0 0 36 36" fill="none" xmlns="http://www.w3.org/2000/svg">
<path d="M22.2 9.44861C21.15 9.44861 20.7 9.44861 18 9.44861C15.3 9.44861 14.85 9.44861 13.8 9.44861C10.95 9.59859 9.6 10.9484 9.45 13.798C9.45 14.8478 9.45 15.2977 9.45 17.9974C9.45 20.697 9.45 21.1469 9.45 22.1967C9.6 25.0463 10.95 26.3961 13.8 26.5461C14.85 26.5461 15.3 26.5461 18 26.5461C20.85 26.5461 21.15 26.5461 22.2 26.5461C25.05 26.3961 26.4 25.0463 26.55 22.1967C26.55 21.1469 26.55 20.697 26.55 17.9974C26.55 15.2977 26.55 14.8478 26.55 13.798C26.4 10.9484 25.05 9.59859 22.2 9.44861ZM18 23.3966C15 23.3966 12.6 20.9969 12.6 17.9974C12.6 14.9978 15 12.5981 18 12.5981C21 12.5981 23.4 14.9978 23.4 17.9974C23.4 20.9969 21 23.3966 18 23.3966ZM23.55 13.648C22.8 13.648 22.35 13.0481 22.35 12.4482C22.35 11.8483 22.95 11.2483 23.55 11.2483C24.15 11.2483 24.75 11.8483 24.75 12.4482C24.9 13.0481 24.3 13.648 23.55 13.648ZM21.45 17.9974C21.45 19.9471 19.95 21.4468 18 21.4468C16.05 21.4468 14.55 19.9471 14.55 17.9974C14.55 16.0476 16.05 14.5479 18 14.5479C19.95 14.5479 21.45 16.0476 21.45 17.9974ZM18 0C8.1 0 0 8.09881 0 17.9974C0 27.8959 8.1 35.9947 18 35.9947C27.9 35.9947 36 27.8959 36 17.9974C36 8.09881 27.9 0 18 0ZM28.5 22.3467C28.35 26.0962 26.25 28.3458 22.35 28.4958C21.3 28.4958 20.85 28.4958 18 28.4958C15.15 28.4958 14.85 28.4958 13.65 28.4958C9.9 28.3458 7.65 26.2461 7.5 22.3467C7.5 21.2969 7.5 20.8469 7.5 17.9974C7.5 15.1478 7.5 14.8478 7.5 13.648C7.65 9.89854 9.75 7.64887 13.65 7.4989C14.7 7.4989 15.15 7.4989 18 7.4989C20.85 7.4989 21.15 7.4989 22.35 7.4989C26.1 7.64887 28.35 9.74857 28.5 13.648C28.5 14.6978 28.5 15.1478 28.5 17.9974C28.5 20.8469 28.5 21.1469 28.5 22.3467Z" fill="white"/>
</svg>
