<svg width="36" height="36" viewBox="0 0 36 36" fill="none" xmlns="http://www.w3.org/2000/svg">
<path d="M18 0C8.1 0 0 8.09881 0 17.9974C0 27.8959 8.1 35.9947 18 35.9947C27.9 35.9947 36 27.8959 36 17.9974C36 8.09881 27.9 0 18 0ZM15 23.9965H12V14.9978H15V23.9965ZM13.5 13.648C12.6 13.648 11.85 12.8981 11.85 11.9982C11.85 11.0984 12.6 10.3485 13.5 10.3485C14.4 10.3485 15.15 11.0984 15.15 11.9982C15.15 12.8981 14.4 13.648 13.5 13.648ZM25.5 23.9965H22.5V19.6471C22.5 16.7975 19.5 17.0975 19.5 19.6471V23.9965H16.5V14.9978H19.5V16.6476C20.85 14.2479 25.5 14.0979 25.5 18.8972V23.9965Z" fill="white"/>
</svg>
