<svg width="22" height="22" viewBox="0 0 22 22" fill="none" xmlns="http://www.w3.org/2000/svg">
<mask id="path-1-outside-1_10845_3156" maskUnits="userSpaceOnUse" x="0" y="0" width="22" height="22" fill="black">
<rect fill="white" width="22" height="22"/>
<path d="M21 11C21 13.3136 20.1978 15.5555 18.7301 17.3439C17.2624 19.1323 15.22 20.3565 12.9509 20.8079C10.6818 21.2592 8.3264 20.9098 6.28603 19.8192C4.24566 18.7286 2.64656 16.9643 1.7612 14.8268C0.875846 12.6894 0.759008 10.3111 1.4306 8.09715C2.10219 5.88322 3.52065 3.97065 5.4443 2.6853C7.36795 1.39996 9.67776 0.821385 11.9802 1.04815C14.2826 1.27492 16.4351 2.293 18.0711 3.92893L11 11H21Z"/>
</mask>
<path d="M21 11C21 13.3136 20.1978 15.5555 18.7301 17.3439C17.2624 19.1323 15.22 20.3565 12.9509 20.8079C10.6818 21.2592 8.3264 20.9098 6.28603 19.8192C4.24566 18.7286 2.64656 16.9643 1.7612 14.8268C0.875846 12.6894 0.759008 10.3111 1.4306 8.09715C2.10219 5.88322 3.52065 3.97065 5.4443 2.6853C7.36795 1.39996 9.67776 0.821385 11.9802 1.04815C14.2826 1.27492 16.4351 2.293 18.0711 3.92893L11 11H21Z" fill="#E8505B"/>
<path d="M21 11C21 13.3136 20.1978 15.5555 18.7301 17.3439C17.2624 19.1323 15.22 20.3565 12.9509 20.8079C10.6818 21.2592 8.3264 20.9098 6.28603 19.8192C4.24566 18.7286 2.64656 16.9643 1.7612 14.8268C0.875846 12.6894 0.759008 10.3111 1.4306 8.09715C2.10219 5.88322 3.52065 3.97065 5.4443 2.6853C7.36795 1.39996 9.67776 0.821385 11.9802 1.04815C14.2826 1.27492 16.4351 2.293 18.0711 3.92893L11 11H21Z" stroke="white" stroke-width="2" mask="url(#path-1-outside-1_10845_3156)"/>
</svg>
