<svg width="36" height="36" viewBox="0 0 36 36" fill="none" xmlns="http://www.w3.org/2000/svg">
<path d="M18 0C8.1 0 0 8.09881 0 17.9974C0 27.8959 8.1 35.9947 18 35.9947C27.9 35.9947 36 27.8959 36 17.9974C36 8.09881 27.9 0 18 0ZM27.15 14.3979C27.45 20.397 22.95 27.146 14.85 27.146C12.45 27.146 10.2 26.3961 8.25 25.1963C10.5 25.4962 12.75 24.8963 14.7 23.3966C12.75 23.3966 11.25 22.0468 10.65 20.397C11.4 20.547 12 20.547 12.6 20.397C10.5 20.097 9 18.1473 9.15 16.1976C9.75 16.4976 10.35 16.6476 11.1 16.7975C9.15 15.4477 8.7 13.0481 9.75 11.0984C11.85 13.648 15 15.4477 18.6 15.5977C18 12.8981 19.95 10.3485 22.8 10.3485C24 10.3485 25.2 10.7984 25.95 11.6983C27 11.5483 27.9 11.0984 28.65 10.6484C28.35 11.6983 27.6 12.4482 26.7 13.0481C27.6 12.8981 28.35 12.7481 29.1 12.2982C28.65 13.0481 27.9 13.798 27.15 14.3979Z" fill="white"/>
</svg>
