<svg width="36" height="37" viewBox="0 0 36 37" fill="none" xmlns="http://www.w3.org/2000/svg">
<path d="M18 0.0527344C8.1 0.0527344 0 8.14926 0 18.045C0 27.9408 8.1 36.0373 18 36.0373C27.9 36.0373 36 27.9408 36 18.045C36 8.14926 27.9 0.0527344 18 0.0527344ZM27.15 14.4466C27.45 20.444 22.95 27.1911 14.85 27.1911C12.45 27.1911 10.2 26.4414 8.25 25.2419C10.5 25.5418 12.75 24.9421 14.7 23.4427C12.75 23.4427 11.25 22.0933 10.65 20.444C11.4 20.5939 12 20.5939 12.6 20.444C10.5 20.1441 9 18.1949 9.15 16.2458C9.75 16.5457 10.35 16.6956 11.1 16.8455C9.15 15.4961 8.7 13.0971 9.75 11.148C11.85 13.6969 15 15.4961 18.6 15.646C18 12.9472 19.95 10.3983 22.8 10.3983C24 10.3983 25.2 10.8481 25.95 11.7477C27 11.5978 27.9 11.148 28.65 10.6982C28.35 11.7477 27.6 12.4974 26.7 13.0971C27.6 12.9472 28.35 12.7973 29.1 12.3475C28.65 13.0971 27.9 13.8468 27.15 14.4466Z" fill="white"/>
</svg>
