<svg width="1440" height="598" viewBox="0 0 1440 598" fill="none" xmlns="http://www.w3.org/2000/svg">
<path fill-rule="evenodd" clip-rule="evenodd" d="M1440 0H0V50.8659V124V598C28.6548 586.605 53.68 562.569 74.5025 539.601C105.641 505.416 144.038 467.493 191.987 470.875C218.923 472.745 241.703 487.478 264.484 502.211C287.265 516.945 310.045 531.678 336.981 533.548C368.732 535.763 396.982 519.68 425.192 503.621C453.671 487.408 482.11 471.219 514.067 473.902C534.508 475.683 553.229 484.941 570.613 495.09C585.275 503.559 599.596 512.681 613.911 521.799C648.651 543.926 683.363 566.036 722.865 578.771C778.647 596.754 849.902 590.522 884.479 545.833C887.564 541.859 890.353 537.624 893.136 533.399C899.829 523.236 906.485 513.129 917.145 506.841C927.27 500.965 939.496 499.363 951.531 498.829C982.237 497.549 1013.52 502.178 1044.56 506.773C1095.61 514.327 1146.02 521.787 1192.23 502.746C1210.75 495.135 1227.48 483.509 1244.1 471.961C1269.46 454.332 1294.56 436.888 1325.38 434.198C1367.98 430.459 1406.19 456.632 1439.81 481.202L1440 481.38V124V11.874V0Z" fill="url(#paint0_linear_12101_3342)"/>
<defs>
<linearGradient id="paint0_linear_12101_3342" x1="1405.5" y1="63.9883" x2="353.059" y2="744.435" gradientUnits="userSpaceOnUse">
<stop stop-color="#E7E8FF"/>
<stop offset="0.301928" stop-color="#B2B5FF"/>
<stop offset="0.631262" stop-color="#5F28B9"/>
<stop offset="0.909375" stop-color="#0C51A3"/>
</linearGradient>
</defs>
</svg>
